<svg xmlns="http://www.w3.org/2000/svg" width="315.22" height="35" viewBox="0 0 315.22 35"><rect class="svg__rect" x="0" y="0" width="115.31" height="35" fill="#8200C6"/><rect class="svg__rect" x="113.31" y="0" width="201.91000000000003" height="35" fill="#A500E2"/><path class="svg__text" d="M15.69 22L14.22 22L14.22 13.47L16.14 13.47L18.60 20.01L21.06 13.47L22.97 13.47L22.97 22L21.49 22L21.49 19.19L21.64 15.43L19.12 22L18.06 22L15.55 15.43L15.69 19.19L15.69 22ZM28.49 22L26.95 22L30.17 13.47L31.50 13.47L34.73 22L33.18 22L32.49 20.01L29.18 20.01L28.49 22ZM30.83 15.28L29.60 18.82L32.07 18.82L30.83 15.28ZM41.14 22L38.69 22L38.69 13.47L41.21 13.47Q42.34 13.47 43.21 13.97Q44.09 14.48 44.57 15.40Q45.05 16.33 45.05 17.52L45.05 17.52L45.05 17.95Q45.05 19.16 44.57 20.08Q44.08 21.00 43.19 21.50Q42.30 22 41.14 22L41.14 22ZM40.17 14.66L40.17 20.82L41.14 20.82Q42.30 20.82 42.93 20.09Q43.55 19.36 43.56 17.99L43.56 17.99L43.56 17.52Q43.56 16.13 42.96 15.40Q42.35 14.66 41.21 14.66L41.21 14.66L40.17 14.66ZM55.09 22L49.51 22L49.51 13.47L55.05 13.47L55.05 14.66L51.00 14.66L51.00 17.02L54.50 17.02L54.50 18.19L51.00 18.19L51.00 20.82L55.09 20.82L55.09 22ZM66.65 22L64.68 13.47L66.15 13.47L67.47 19.88L69.10 13.47L70.34 13.47L71.96 19.89L73.27 13.47L74.74 13.47L72.77 22L71.35 22L69.73 15.77L68.07 22L66.65 22ZM80.38 22L78.90 22L78.90 13.47L80.38 13.47L80.38 22ZM86.87 14.66L84.23 14.66L84.23 13.47L91.00 13.47L91.00 14.66L88.34 14.66L88.34 22L86.87 22L86.87 14.66ZM96.24 22L94.75 22L94.75 13.47L96.24 13.47L96.24 17.02L100.05 17.02L100.05 13.47L101.53 13.47L101.53 22L100.05 22L100.05 18.21L96.24 18.21L96.24 22Z" fill="#FFFFFF"/><path class="svg__text" d="M129.70 22L127.50 22L127.50 13.60L129.45 13.60L132.41 18.45L135.29 13.60L137.24 13.60L137.27 22L135.09 22L135.06 17.55L132.90 21.17L131.85 21.17L129.70 17.67L129.70 22ZM144.78 22L142.43 22L142.43 13.60L144.78 13.60L144.78 17.09L148.03 13.60L150.65 13.60L147.22 17.32L150.83 22L148.07 22L145.67 18.95L144.78 19.90L144.78 22ZM158.91 22L154.94 22L154.94 13.60L158.91 13.60Q160.29 13.60 161.36 14.12Q162.43 14.63 163.01 15.58Q163.60 16.53 163.60 17.80L163.60 17.80Q163.60 19.07 163.01 20.02Q162.43 20.97 161.36 21.48Q160.29 22 158.91 22L158.91 22ZM157.32 15.50L157.32 20.10L158.82 20.10Q159.89 20.10 160.55 19.49Q161.20 18.88 161.20 17.80L161.20 17.80Q161.20 16.72 160.55 16.11Q159.89 15.50 158.82 15.50L158.82 15.50L157.32 15.50ZM167.90 17.80L167.90 17.80Q167.90 16.55 168.51 15.55Q169.11 14.56 170.17 14.00Q171.24 13.43 172.57 13.43L172.57 13.43Q173.90 13.43 174.96 14.00Q176.03 14.56 176.63 15.55Q177.24 16.55 177.24 17.80L177.24 17.80Q177.24 19.05 176.63 20.04Q176.03 21.04 174.96 21.60Q173.90 22.17 172.57 22.17L172.57 22.17Q171.24 22.17 170.17 21.60Q169.11 21.04 168.51 20.04Q167.90 19.05 167.90 17.80ZM170.30 17.80L170.30 17.80Q170.30 18.51 170.60 19.05Q170.90 19.60 171.42 19.90Q171.94 20.20 172.57 20.20L172.57 20.20Q173.21 20.20 173.72 19.90Q174.24 19.60 174.54 19.05Q174.84 18.51 174.84 17.80L174.84 17.80Q174.84 17.09 174.54 16.54Q174.24 16 173.72 15.70Q173.21 15.40 172.57 15.40L172.57 15.40Q171.93 15.40 171.42 15.70Q170.90 16 170.60 16.54Q170.30 17.09 170.30 17.80ZM181.54 17.80L181.54 17.80Q181.54 16.54 182.14 15.54Q182.73 14.55 183.79 13.99Q184.84 13.43 186.16 13.43L186.16 13.43Q187.31 13.43 188.23 13.84Q189.16 14.25 189.77 15.02L189.77 15.02L188.26 16.39Q187.45 15.40 186.28 15.40L186.28 15.40Q185.59 15.40 185.06 15.70Q184.53 16 184.23 16.54Q183.94 17.09 183.94 17.80L183.94 17.80Q183.94 18.51 184.23 19.05Q184.53 19.60 185.06 19.90Q185.59 20.20 186.28 20.20L186.28 20.20Q187.45 20.20 188.26 19.22L188.26 19.22L189.77 20.58Q189.16 21.35 188.24 21.76Q187.31 22.17 186.16 22.17L186.16 22.17Q184.84 22.17 183.79 21.61Q182.73 21.05 182.14 20.05Q181.54 19.06 181.54 17.80ZM193.72 21.24L193.72 21.24L194.50 19.49Q195.06 19.86 195.81 20.09Q196.55 20.32 197.27 20.32L197.27 20.32Q198.64 20.32 198.64 19.64L198.64 19.64Q198.64 19.28 198.25 19.11Q197.86 18.93 197.00 18.74L197.00 18.74Q196.05 18.53 195.41 18.30Q194.78 18.06 194.32 17.55Q193.87 17.03 193.87 16.16L193.87 16.16Q193.87 15.39 194.29 14.77Q194.70 14.15 195.54 13.79Q196.37 13.43 197.58 13.43L197.58 13.43Q198.41 13.43 199.21 13.62Q200.02 13.80 200.63 14.17L200.63 14.17L199.90 15.93Q198.70 15.28 197.57 15.28L197.57 15.28Q196.86 15.28 196.54 15.49Q196.22 15.70 196.22 16.04L196.22 16.04Q196.22 16.37 196.60 16.54Q196.98 16.71 197.83 16.89L197.83 16.89Q198.79 17.10 199.42 17.33Q200.05 17.56 200.52 18.07Q200.98 18.58 200.98 19.46L200.98 19.46Q200.98 20.21 200.56 20.83Q200.14 21.44 199.30 21.80Q198.46 22.17 197.26 22.17L197.26 22.17Q196.24 22.17 195.28 21.92Q194.32 21.67 193.72 21.24ZM208.80 19.46L205.29 19.46L205.29 17.71L208.80 17.71L208.80 19.46ZM215.89 22L213.70 22L213.70 13.60L215.65 13.60L218.61 18.45L221.49 13.60L223.44 13.60L223.46 22L221.28 22L221.26 17.55L219.10 21.17L218.04 21.17L215.89 17.67L215.89 22ZM230.04 22L227.62 22L231.33 13.60L233.67 13.60L237.38 22L234.92 22L234.26 20.37L230.70 20.37L230.04 22ZM232.48 15.93L231.40 18.61L233.56 18.61L232.48 15.93ZM243.33 15.48L240.75 15.48L240.75 13.60L248.27 13.60L248.27 15.48L245.70 15.48L245.70 22L243.33 22L243.33 15.48ZM259.39 22L252.64 22L252.64 13.60L259.23 13.60L259.23 15.44L255.00 15.44L255.00 16.85L258.73 16.85L258.73 18.63L255.00 18.63L255.00 20.17L259.39 20.17L259.39 22ZM266.57 22L264.19 22L264.19 13.60L268.04 13.60Q269.18 13.60 270.02 13.98Q270.85 14.35 271.31 15.06Q271.77 15.76 271.77 16.71L271.77 16.71Q271.77 17.62 271.34 18.30Q270.91 18.98 270.12 19.36L270.12 19.36L271.93 22L269.39 22L267.87 19.77L266.57 19.77L266.57 22ZM266.57 15.47L266.57 17.93L267.89 17.93Q268.62 17.93 268.99 17.61Q269.37 17.29 269.37 16.71L269.37 16.71Q269.37 16.12 268.99 15.79Q268.62 15.47 267.89 15.47L267.89 15.47L266.57 15.47ZM278.93 22L276.55 22L276.55 13.60L278.93 13.60L278.93 22ZM285.53 22L283.10 22L286.81 13.60L289.15 13.60L292.87 22L290.40 22L289.74 20.37L286.19 20.37L285.53 22ZM287.96 15.93L286.88 18.61L289.04 18.61L287.96 15.93ZM303.41 22L297.02 22L297.02 13.60L299.40 13.60L299.40 20.11L303.41 20.11L303.41 22Z" fill="#FFFFFF" x="126.31"/></svg>